<?xml version="1.0" encoding="utf-8"?>
<!-- Generator: Adobe Illustrator 25.2.0, SVG Export Plug-In . SVG Version: 6.00 Build 0)  -->
<svg version="1.1" id="Layer_1" xmlns="http://www.w3.org/2000/svg" xmlns:xlink="http://www.w3.org/1999/xlink" x="0px" y="0px"
	 viewBox="0 0 1125 2436" style="enable-background:new 0 0 1125 2436;" xml:space="preserve">
<style type="text/css">
	.st0{fill:#3D4C41;}
	.st1{fill:#FFFFFF;}
	.st2{fill:#162814;stroke:#000000;stroke-miterlimit:10;}
</style>
<g>
	<circle class="st0" cx="298.8" cy="276.4" r="154"/>
	<g>
		<path class="st1" d="M219.7,228.2h-0.3l-3.5,7.1l-9.6,17.6l-9.6-17.6l-3.5-7.1h-0.3v33.6h-6.8v-44h8.4l11.8,22.4h0.4l11.8-22.4
			h8.1v44h-6.8V228.2z"/>
		<path class="st1" d="M240.3,223.3c-1.4,0-2.5-0.3-3.1-1c-0.7-0.7-1-1.5-1-2.6v-1.1c0-1,0.3-1.9,1-2.6c0.7-0.7,1.7-1,3.1-1
			c1.4,0,2.5,0.3,3.1,1c0.6,0.7,0.9,1.5,0.9,2.6v1.1c0,1.1-0.3,1.9-0.9,2.6C242.8,222.9,241.8,223.3,240.3,223.3z M236.9,229.1h6.9
			v32.8h-6.9V229.1z"/>
		<path class="st1" d="M260.6,261.9c-2.4,0-4.1-0.6-5.3-1.8c-1.2-1.2-1.7-2.9-1.7-5v-39.8h6.9v41h4.5v5.6H260.6z"/>
		<path class="st1" d="M284.2,262.6c-2.4,0-4.5-0.4-6.3-1.2c-1.8-0.8-3.4-1.9-4.7-3.4c-1.3-1.5-2.2-3.3-2.9-5.4
			c-0.7-2.1-1-4.5-1-7.1c0-2.6,0.3-5,1-7.1c0.7-2.1,1.6-3.9,2.9-5.4c1.3-1.5,2.8-2.6,4.7-3.4c1.8-0.8,3.9-1.2,6.3-1.2
			c3.3,0,6,0.7,8.1,2.2c2.1,1.5,3.6,3.4,4.6,5.9l-5.7,2.6c-0.5-1.5-1.3-2.7-2.4-3.6c-1.2-0.9-2.7-1.4-4.6-1.4
			c-2.5,0-4.4,0.8-5.7,2.4c-1.3,1.6-1.9,3.6-1.9,6.1v5.8c0,2.5,0.6,4.6,1.9,6.1c1.3,1.6,3.2,2.4,5.7,2.4c2,0,3.6-0.5,4.8-1.5
			c1.2-1,2.2-2.3,2.9-3.9l5.2,2.8c-1.1,2.7-2.7,4.8-4.9,6.2C290,261.9,287.3,262.6,284.2,262.6z"/>
		<path class="st1" d="M327.7,261.9c-1.8,0-3.2-0.5-4.2-1.5c-1-1-1.6-2.3-1.8-3.9h-0.3c-0.6,2.1-1.8,3.6-3.5,4.7
			c-1.7,1-3.7,1.6-6.1,1.6c-3.4,0-6-0.9-7.8-2.6c-1.8-1.8-2.7-4.1-2.7-7.1c0-3.3,1.2-5.7,3.6-7.4c2.4-1.6,5.8-2.5,10.4-2.5h5.9v-2.8
			c0-2-0.5-3.6-1.6-4.7c-1.1-1.1-2.8-1.6-5.1-1.6c-1.9,0-3.5,0.4-4.7,1.3c-1.2,0.8-2.2,1.9-3.1,3.2l-4.1-3.7
			c1.1-1.8,2.6-3.4,4.6-4.6c2-1.2,4.6-1.8,7.7-1.8c4.2,0,7.5,1,9.8,3c2.3,2,3.4,4.8,3.4,8.5v16.4h3.5v5.6H327.7z M313.8,257.4
			c2.1,0,3.9-0.5,5.3-1.4c1.4-0.9,2.1-2.2,2.1-3.8v-4.7h-5.8c-4.7,0-7.1,1.5-7.1,4.4v1.1c0,1.5,0.5,2.6,1.5,3.3
			C310.7,257,312.1,257.4,313.8,257.4z"/>
		<path class="st1" d="M338.2,215.3h6.9v19.3h0.3c0.7-1.8,1.8-3.2,3.2-4.4c1.4-1.2,3.4-1.8,6-1.8c3.4,0,6,1.1,7.8,3.3
			c1.9,2.2,2.8,5.3,2.8,9.4v20.8h-6.9v-20c0-5.1-2.1-7.6-6.2-7.6c-0.9,0-1.8,0.1-2.6,0.3c-0.9,0.2-1.6,0.6-2.3,1
			c-0.7,0.5-1.2,1.1-1.6,1.8c-0.4,0.7-0.6,1.5-0.6,2.5v22h-6.9V215.3z"/>
		<path class="st1" d="M378.1,214.6c1.6,0,2.8,0.4,3.5,1.1c0.7,0.8,1.1,1.7,1.1,3v1.1c0,1-0.1,2-0.4,3.1c-0.3,1.1-0.7,2.1-1.3,3.2
			c-0.5,1.1-1.2,2.1-2,3c-0.8,1-1.6,1.8-2.5,2.6h-4.9c1.3-1.3,2.4-2.6,3.3-3.8c0.8-1.3,1.5-2.6,2-4.1c-1.1-0.2-1.9-0.7-2.4-1.4
			c-0.5-0.7-0.8-1.6-0.8-2.5v-1.1c0-1.2,0.4-2.2,1.1-3C375.4,215,376.5,214.6,378.1,214.6z"/>
		<path class="st1" d="M398.5,262.6c-3.1,0-5.7-0.5-7.8-1.6c-2.1-1.1-3.9-2.6-5.5-4.5l4.4-4c1.2,1.5,2.6,2.6,4.1,3.4
			c1.5,0.8,3.2,1.2,5.2,1.2c2,0,3.5-0.4,4.5-1.2c1-0.8,1.5-1.9,1.5-3.2c0-1-0.3-1.9-1-2.7c-0.7-0.7-1.9-1.2-3.6-1.4l-3-0.4
			c-3.4-0.4-6-1.4-7.9-2.9c-1.9-1.5-2.9-3.8-2.9-6.8c0-1.6,0.3-3,0.9-4.3c0.6-1.2,1.4-2.3,2.5-3.1c1.1-0.9,2.4-1.5,3.8-2
			c1.5-0.5,3.1-0.7,4.9-0.7c2.9,0,5.3,0.5,7.2,1.4c1.9,0.9,3.5,2.2,5,3.8l-4.2,4c-0.8-1-1.9-1.9-3.3-2.6c-1.4-0.7-2.9-1.1-4.7-1.1
			c-1.9,0-3.3,0.4-4.2,1.1c-0.9,0.8-1.4,1.7-1.4,3c0,1.3,0.4,2.2,1.2,2.8c0.8,0.6,2.1,1.1,3.8,1.4l3,0.4c3.6,0.5,6.2,1.6,7.9,3.2
			c1.7,1.6,2.5,3.7,2.5,6.3c0,1.6-0.3,3-0.9,4.3c-0.6,1.3-1.5,2.4-2.6,3.3c-1.1,0.9-2.5,1.6-4.1,2.1
			C402.2,262.4,400.4,262.6,398.5,262.6z"/>
		<path class="st1" d="M197.8,314.8l-7.1,7.9v14.8h-3.8v-44h3.8v24.8h0.1l7.1-8.1l14.5-16.6h4.6l-16.6,18.7l17.4,25.3h-4.7
			L197.8,314.8z"/>
		<path class="st1" d="M226.7,296.5c-0.8,0-1.5-0.2-1.9-0.6c-0.4-0.4-0.6-1-0.6-1.6v-0.6c0-0.7,0.2-1.2,0.6-1.6
			c0.4-0.4,1-0.6,1.9-0.6c0.8,0,1.5,0.2,1.9,0.6c0.4,0.4,0.6,1,0.6,1.6v0.6c0,0.7-0.2,1.2-0.6,1.6
			C228.2,296.3,227.6,296.5,226.7,296.5z M225,305.2h3.6v32.3H225V305.2z"/>
		<path class="st1" d="M245.8,337.5c-1.3,0-2.3-0.4-3-1.1c-0.7-0.7-1-1.7-1-2.9v-25.2h-5.6v-3.1h3.7c0.9,0,1.5-0.2,1.8-0.5
			c0.3-0.4,0.5-1,0.5-1.9v-6.6h3.3v9h7.3v3.1h-7.3v26.1h6.8v3.1H245.8z"/>
		<path class="st1" d="M272.5,338.2c-4.5,0-7.9-1.5-10.3-4.4c-2.4-2.9-3.6-7.1-3.6-12.5c0-5.4,1.2-9.5,3.6-12.5
			c2.4-2.9,5.8-4.4,10.3-4.4c3,0,5.4,0.7,7.2,2c1.8,1.3,3.3,3,4.2,5.2l-3,1.5c-0.8-1.8-1.8-3.1-3.2-4c-1.4-0.9-3.1-1.4-5.3-1.4
			c-3.3,0-5.8,1.1-7.5,3.1c-1.7,2.1-2.6,4.9-2.6,8.3v4.5c0,3.4,0.9,6.2,2.6,8.3c1.7,2.1,4.2,3.1,7.5,3.1c2.2,0,4.1-0.5,5.6-1.4
			c1.5-1,2.7-2.4,3.7-4.2l2.6,1.8c-1.1,2.1-2.6,3.9-4.5,5.1S275.4,338.2,272.5,338.2z"/>
		<path class="st1" d="M292.4,290.9h3.6v19.5h0.2c0.7-1.7,1.8-3.1,3.3-4.2c1.5-1.1,3.6-1.7,6.2-1.7c3.4,0,6.1,1.1,8,3.2
			c1.9,2.1,2.9,5.2,2.9,9.1v20.7H313v-20.1c0-3.3-0.7-5.7-2.1-7.3c-1.4-1.6-3.5-2.4-6.1-2.4c-1.1,0-2.2,0.1-3.3,0.4
			c-1.1,0.3-2,0.7-2.8,1.3c-0.8,0.6-1.5,1.3-2,2.2c-0.5,0.9-0.7,1.9-0.7,3.1v22.7h-3.6V290.9z"/>
		<path class="st1" d="M339.4,338.2c-2.1,0-4.1-0.4-5.8-1.1c-1.7-0.8-3.2-1.9-4.5-3.3c-1.2-1.4-2.2-3.2-2.8-5.3
			c-0.7-2.1-1-4.5-1-7.1s0.3-5,1-7.1c0.7-2.1,1.6-3.8,2.8-5.3c1.2-1.4,2.7-2.6,4.4-3.3c1.7-0.8,3.7-1.2,5.8-1.2
			c2.1,0,3.9,0.4,5.6,1.2c1.7,0.8,3.1,1.9,4.3,3.3c1.2,1.4,2.1,3.1,2.7,5c0.7,2,1,4.1,1,6.5v1.7H329v1.6c0,1.7,0.2,3.2,0.7,4.6
			c0.5,1.4,1.2,2.6,2.1,3.6c0.9,1,2,1.8,3.3,2.4c1.3,0.6,2.8,0.9,4.4,0.9c4.7,0,8-2.2,9.8-6.5l2.6,1.8c-1,2.4-2.6,4.3-4.8,5.7
			C345.1,337.5,342.4,338.2,339.4,338.2z M339.3,307.6c-1.6,0-3,0.3-4.2,0.9c-1.3,0.6-2.3,1.4-3.2,2.4c-0.9,1-1.6,2.2-2.1,3.6
			c-0.5,1.4-0.7,3-0.7,4.6v0.3h20v-0.5c0-1.7-0.2-3.2-0.7-4.6c-0.5-1.4-1.1-2.6-2-3.6c-0.9-1-1.9-1.7-3.1-2.3
			C342,307.8,340.7,307.6,339.3,307.6z"/>
		<path class="st1" d="M362.1,337.5v-32.3h3.6v5.1h0.2c0.7-1.7,1.8-3.1,3.3-4.2c1.5-1.1,3.6-1.7,6.2-1.7c3.4,0,6.1,1.1,8,3.2
			c1.9,2.1,2.9,5.2,2.9,9.1v20.7h-3.6v-20.1c0-3.3-0.7-5.7-2.1-7.3c-1.4-1.6-3.5-2.4-6.1-2.4c-1.1,0-2.2,0.1-3.3,0.4
			c-1.1,0.3-2,0.7-2.8,1.3c-0.8,0.6-1.5,1.3-2,2.2c-0.5,0.9-0.7,1.9-0.7,3.1v22.7H362.1z"/>
	</g>
</g>
<circle class="st2" cx="1675.5" cy="563.5" r="154"/>
<text transform="matrix(1 0 0 1 1566.5 550.3208)"><tspan x="0" y="0" class="st1" style="font-family:'IBMPlexSansThai-Medium'; font-size:63px;">Milcah’s</tspan><tspan x="238.2" y="0" class="st1" style="font-family:'IBMPlexSansThai-Light'; font-size:63px;"> </tspan><tspan x="0" y="75.6" class="st1" style="font-family:'IBMPlexSansThai-Light'; font-size:63px;">Kitchen</tspan></text>
</svg>
