<svg id="Layer_1" data-name="Layer 1" xmlns="http://www.w3.org/2000/svg" viewBox="0 0 419.96 303"><defs><style>.cls-1{fill:#fff;}.cls-1,.cls-2{stroke:#000;stroke-miterlimit:10;stroke-width:3px;}.cls-2{fill:none;}</style></defs><path class="cls-1" d="M845.35,712.75h-300V552.93H828.52c.76,2.56,1.49,5.14,2.25,7.71l2.24,7.72c.5,1.37,1,2.77,1.48,4.2a279.92,279.92,0,0,1,13.66,61.68c.2,1.88.39,3.76.53,5.61A279.25,279.25,0,0,1,845.35,712.75Z" transform="translate(-468.64 -450.5)"/><polygon class="cls-1" points="298.15 98.62 298.15 192.15 76.7 192.15 76.7 23.93 249.35 23.93 298.15 98.62"/><path class="cls-2" d="M848.68,639.85H786.47V572.56h48a279.92,279.92,0,0,1,13.66,61.68C848.35,636.12,848.54,638,848.68,639.85Z" transform="translate(-468.64 -450.5)"/><polyline class="cls-2" points="73 262.17 104.74 270.66 359.58 270.66 376.55 262.1"/><circle class="cls-1" cx="143.99" cy="273.46" r="25.23"/><circle class="cls-1" cx="143.99" cy="273.46" r="12.07"/><circle class="cls-1" cx="323.43" cy="273.46" r="25.23"/><circle class="cls-1" cx="323.43" cy="273.46" r="12.07"/><line class="cls-1" x1="221.07" y1="2.1" x2="228.1" y2="1.5"/><line class="cls-1" x1="236.42" y1="1.5" x2="262.52" y2="1.5"/><line class="cls-1" x1="55.65" y1="89.02" x2="70.64" y2="88.42"/><line class="cls-1" x1="88.35" y1="88.42" x2="143.99" y2="88.42"/><line class="cls-1" x1="27.61" y1="108.64" x2="42.6" y2="108.04"/><line class="cls-1" x1="60.31" y1="108.04" x2="115.95" y2="108.04"/><line class="cls-1" x1="274.34" y1="24.53" x2="281.38" y2="23.93"/><line class="cls-1" x1="289.69" y1="23.93" x2="306.61" y2="23.93"/><line class="cls-1" x1="362.58" y1="217.39" x2="379.51" y2="217.39"/><line class="cls-1" x1="76.6" y1="203.37" x2="93.52" y2="203.37"/><line class="cls-1" y1="301.5" x2="419.96" y2="301.5"/></svg>