<svg id="Layer_1" data-name="Layer 1" xmlns="http://www.w3.org/2000/svg" viewBox="0 0 1685.23 595.57"><defs><style>.cls-1{fill:#3d4c41;}.cls-2,.cls-4{fill:#fff;}.cls-3{fill:#162814;stroke:#000;stroke-miterlimit:10;}.cls-4{font-size:63px;font-family:IBMPlexSansThai-Medium, IBM Plex Sans Thai;font-weight:500;}.cls-5{letter-spacing:-0.01em;}.cls-6{letter-spacing:-0.06em;}.cls-7{font-family:IBMPlexSansThai-Light, IBM Plex Sans Thai;font-weight:300;}.cls-8{letter-spacing:0em;}</style></defs><circle class="cls-1" cx="154" cy="154" r="154"/><path class="cls-2" d="M219.74,228.24h-.32L216,235.36l-9.64,17.57-9.64-17.57-3.46-7.12h-.32v33.64h-6.8v-44h8.44l11.78,22.37h.38l11.78-22.37h8.06v44h-6.8Z" transform="translate(-144.77 -122.43)"/><path class="cls-2" d="M240.34,223.26a4.19,4.19,0,0,1-3.12-1,3.55,3.55,0,0,1-1-2.58V218.6a3.59,3.59,0,0,1,1-2.59,4.19,4.19,0,0,1,3.12-1,4.08,4.08,0,0,1,3.09,1,3.65,3.65,0,0,1,.94,2.59v1.07a3.61,3.61,0,0,1-.94,2.58A4.09,4.09,0,0,1,240.34,223.26Zm-3.47,5.86h6.87v32.76h-6.87Z" transform="translate(-144.77 -122.43)"/><path class="cls-2" d="M260.56,261.88a7,7,0,0,1-5.26-1.8,6.91,6.91,0,0,1-1.73-5V215.26h6.87v41H265v5.61Z" transform="translate(-144.77 -122.43)"/><path class="cls-2" d="M284.19,262.63a15.83,15.83,0,0,1-6.3-1.19,12.45,12.45,0,0,1-4.67-3.44,15.48,15.48,0,0,1-2.89-5.41,25.39,25.39,0,0,1,0-14.18,15.53,15.53,0,0,1,2.89-5.42,12.53,12.53,0,0,1,4.67-3.43,15.66,15.66,0,0,1,6.3-1.2,13.75,13.75,0,0,1,8.06,2.21,12.71,12.71,0,0,1,4.6,5.86l-5.67,2.64a7,7,0,0,0-2.43-3.62,7.19,7.19,0,0,0-4.56-1.35,7,7,0,0,0-5.71,2.35,9.39,9.39,0,0,0-1.92,6.13v5.84a9.42,9.42,0,0,0,1.92,6.13,7,7,0,0,0,5.71,2.35,7.34,7.34,0,0,0,4.82-1.48,10.39,10.39,0,0,0,2.86-3.94l5.23,2.78a13.11,13.11,0,0,1-4.91,6.21A14.23,14.23,0,0,1,284.19,262.63Z" transform="translate(-144.77 -122.43)"/><path class="cls-2" d="M327.66,261.88a5.45,5.45,0,0,1-4.16-1.54,6.9,6.9,0,0,1-1.77-3.94h-.31a8.05,8.05,0,0,1-3.47,4.66,11.29,11.29,0,0,1-6.11,1.57q-5.1,0-7.84-2.64a9.44,9.44,0,0,1-2.74-7.12,8.34,8.34,0,0,1,3.56-7.37q3.56-2.46,10.42-2.46h5.93v-2.77a6.3,6.3,0,0,0-1.64-4.66q-1.63-1.63-5.1-1.64a8.16,8.16,0,0,0-4.73,1.26,11.27,11.27,0,0,0-3.09,3.21l-4.09-3.71a13.08,13.08,0,0,1,4.6-4.57,14.75,14.75,0,0,1,7.75-1.8q6.36,0,9.76,3c2.27,2,3.4,4.81,3.4,8.51v16.44h3.47v5.61Zm-13.86-4.47a9.24,9.24,0,0,0,5.29-1.42,4.42,4.42,0,0,0,2.08-3.81v-4.73h-5.8q-7.12,0-7.12,4.41V253a3.86,3.86,0,0,0,1.48,3.3A6.65,6.65,0,0,0,313.8,257.41Z" transform="translate(-144.77 -122.43)"/><path class="cls-2" d="M338.24,215.26h6.87v19.28h.31a10.78,10.78,0,0,1,3.25-4.41,9.16,9.16,0,0,1,5.95-1.77,9.7,9.7,0,0,1,7.84,3.31q2.81,3.32,2.81,9.42v20.79H358.4v-20q0-7.62-6.17-7.63a10.08,10.08,0,0,0-2.62.35,7.43,7.43,0,0,0-2.3,1,5.22,5.22,0,0,0-1.61,1.76,5.08,5.08,0,0,0-.59,2.46v22h-6.87Z" transform="translate(-144.77 -122.43)"/><path class="cls-2" d="M378.12,214.63a4.6,4.6,0,0,1,3.46,1.13,4.13,4.13,0,0,1,1.07,3v1.07a11.51,11.51,0,0,1-.44,3.12,15.47,15.47,0,0,1-1.26,3.18,19,19,0,0,1-1.95,3,16.22,16.22,0,0,1-2.52,2.58h-4.91a23.9,23.9,0,0,0,3.27-3.84,16.3,16.3,0,0,0,2-4.1,3.73,3.73,0,0,1-2.43-1.38,4.13,4.13,0,0,1-.79-2.52v-1.14a4.17,4.17,0,0,1,1.07-3A4.62,4.62,0,0,1,378.12,214.63Z" transform="translate(-144.77 -122.43)"/><path class="cls-2" d="M398.47,262.63a16.82,16.82,0,0,1-7.81-1.63,17.38,17.38,0,0,1-5.49-4.54l4.41-4a14.19,14.19,0,0,0,4.07,3.43,10.6,10.6,0,0,0,5.2,1.23,7.2,7.2,0,0,0,4.5-1.17,3.87,3.87,0,0,0,1.48-3.24,3.79,3.79,0,0,0-1-2.68,5.9,5.9,0,0,0-3.62-1.41l-3-.38a15.5,15.5,0,0,1-7.9-2.93q-2.87-2.29-2.87-6.84a9.79,9.79,0,0,1,.88-4.25,8.89,8.89,0,0,1,2.49-3.15,11.44,11.44,0,0,1,3.84-2,15.79,15.79,0,0,1,17.17,4.53l-4.22,4a11,11,0,0,0-3.31-2.61,9.67,9.67,0,0,0-4.69-1.1,6.41,6.41,0,0,0-4.19,1.13,3.68,3.68,0,0,0-1.35,3,3.42,3.42,0,0,0,1.19,2.84,8.55,8.55,0,0,0,3.85,1.38l3,.38q5.42.83,7.91,3.18a8.33,8.33,0,0,1,2.49,6.33,9.92,9.92,0,0,1-.92,4.32,9.59,9.59,0,0,1-2.61,3.31,12.46,12.46,0,0,1-4.1,2.14A17.83,17.83,0,0,1,398.47,262.63Z" transform="translate(-144.77 -122.43)"/><path class="cls-2" d="M197.81,314.8l-7.11,7.87v14.81h-3.79v-44h3.79v24.76h.12l7.06-8.12,14.49-16.64H217L200.4,312.22l17.39,25.26h-4.67Z" transform="translate(-144.77 -122.43)"/><path class="cls-2" d="M226.73,296.47a2.46,2.46,0,0,1-1.86-.63,2.29,2.29,0,0,1-.6-1.64v-.63a2.29,2.29,0,0,1,.6-1.64,3.06,3.06,0,0,1,3.72,0,2.29,2.29,0,0,1,.6,1.64v.63a2.29,2.29,0,0,1-.6,1.64A2.46,2.46,0,0,1,226.73,296.47ZM225,305.22h3.59v32.26H225Z" transform="translate(-144.77 -122.43)"/><path class="cls-2" d="M245.82,337.48a3.89,3.89,0,0,1-3-1.07,4.1,4.1,0,0,1-1-2.91V308.31h-5.61v-3.09h3.66a2.36,2.36,0,0,0,1.79-.53,2.93,2.93,0,0,0,.47-1.92v-6.56h3.28v9h7.31v3.09h-7.31v26.08h6.81v3.09Z" transform="translate(-144.77 -122.43)"/><path class="cls-2" d="M272.47,338.23q-6.68,0-10.3-4.41t-3.63-12.47q0-8.07,3.63-12.47t10.3-4.41a11.56,11.56,0,0,1,11.46,7.12l-3,1.51a9,9,0,0,0-3.18-4,9.17,9.17,0,0,0-5.26-1.39q-4.92,0-7.5,3.15a12.61,12.61,0,0,0-2.58,8.25v4.54a12.61,12.61,0,0,0,2.58,8.25q2.58,3.15,7.5,3.15a10.16,10.16,0,0,0,5.6-1.45,10.37,10.37,0,0,0,3.66-4.16l2.64,1.77a12.71,12.71,0,0,1-4.5,5.13A13.23,13.23,0,0,1,272.47,338.23Z" transform="translate(-144.77 -122.43)"/><path class="cls-2" d="M292.37,290.86H296v19.47h.18a10,10,0,0,1,3.34-4.19,11.95,11.95,0,0,1,14.21,1.51q2.87,3.18,2.87,9.1v20.73H313v-20.1c0-3.27-.71-5.71-2.11-7.31a7.79,7.79,0,0,0-6.15-2.39,12.23,12.23,0,0,0-3.27.44,9.21,9.21,0,0,0-2.81,1.32A6.37,6.37,0,0,0,296,314.8v22.68h-3.6Z" transform="translate(-144.77 -122.43)"/><path class="cls-2" d="M339.37,338.23a14.47,14.47,0,0,1-5.83-1.13,12.26,12.26,0,0,1-4.47-3.31,14.79,14.79,0,0,1-2.83-5.32,23.71,23.71,0,0,1-1-7.12,23.41,23.41,0,0,1,1-7.09,14.81,14.81,0,0,1,2.83-5.29,12.64,12.64,0,0,1,4.44-3.34,14.07,14.07,0,0,1,5.8-1.16,13.16,13.16,0,0,1,5.61,1.17,12.36,12.36,0,0,1,4.28,3.25,15.12,15.12,0,0,1,2.74,5,20.49,20.49,0,0,1,1,6.48v1.71H329v1.57a14.23,14.23,0,0,0,.72,4.63,10.48,10.48,0,0,0,2.08,3.62,9.56,9.56,0,0,0,3.31,2.37,11,11,0,0,0,4.41.85,9.8,9.8,0,0,0,9.77-6.49l2.64,1.75a12.53,12.53,0,0,1-4.75,5.7A14,14,0,0,1,339.37,338.23Zm-.06-30.68a10.26,10.26,0,0,0-4.22.85,9.71,9.71,0,0,0-3.25,2.37,10.48,10.48,0,0,0-2.08,3.62A14.27,14.27,0,0,0,329,319v.31h20v-.5a14.84,14.84,0,0,0-.69-4.63,9.93,9.93,0,0,0-2-3.56,9.24,9.24,0,0,0-3.08-2.27A9.48,9.48,0,0,0,339.31,307.55Z" transform="translate(-144.77 -122.43)"/><path class="cls-2" d="M362.05,337.48V305.22h3.59v5.11h.19a10,10,0,0,1,3.34-4.19,10.15,10.15,0,0,1,6.17-1.67q5.18,0,8,3.18t2.86,9.1v20.73h-3.59v-20.1q0-4.9-2.11-7.31a7.77,7.77,0,0,0-6.14-2.39,12.3,12.3,0,0,0-3.28.44,9.15,9.15,0,0,0-2.8,1.32,6.41,6.41,0,0,0-2.68,5.36v22.68Z" transform="translate(-144.77 -122.43)"/><circle class="cls-3" cx="1530.73" cy="441.07" r="154"/><text class="cls-4" transform="translate(1421.73 427.89)">Milca<tspan class="cls-5" x="152.65" y="0">h</tspan><tspan class="cls-6" x="188.31" y="0">’</tspan><tspan x="202.48" y="0">s</tspan><tspan class="cls-7" x="233.6" y="0"> </tspan><tspan class="cls-7"><tspan x="0" y="75.6">Ki</tspan><tspan class="cls-8" x="53.74" y="75.6">t</tspan><tspan x="74.59" y="75.6">chen</tspan></tspan></text></svg>