<?xml version="1.0" encoding="utf-8"?>
<!-- Generator: Adobe Illustrator 25.2.0, SVG Export Plug-In . SVG Version: 6.00 Build 0)  -->
<svg version="1.1" id="Layer_1" xmlns="http://www.w3.org/2000/svg" xmlns:xlink="http://www.w3.org/1999/xlink" x="0px" y="0px"
	 viewBox="0 0 1125 2436" style="enable-background:new 0 0 1125 2436;" xml:space="preserve">
<style type="text/css">
	.st0{fill:#FFFFFF;stroke:#DF4C73;stroke-width:3;stroke-miterlimit:10;}
	.st1{fill:#FFFFFF;stroke:#DF4C73;stroke-width:2;stroke-linecap:round;stroke-miterlimit:10;}
	.st2{fill:none;stroke:#DF4C73;stroke-width:2;stroke-miterlimit:10;}
	.st3{fill:none;stroke:#DF4C73;stroke-width:2;stroke-linecap:round;stroke-miterlimit:10;}
	.st4{fill:#FFFFFF;stroke:#DF4C73;stroke-width:2;stroke-miterlimit:10;}
</style>
<g>
	<circle class="st0" cx="313.2" cy="406.2" r="119.8"/>
	<path class="st1" d="M285.8,312c8.7-2.5,17.9-3.9,27.5-3.9c17.2,0,33.4,4.4,47.5,12.2"/>
	<path class="st0" d="M266.6,319.9"/>
	<path class="st1" d="M255.7,485.8c-24.6-17.8-40.6-46.8-40.6-79.5c0-19.9,5.9-38.5,16.1-53.9"/>
	<path class="st1" d="M321.3,504.1c-2.6,0.2-5.3,0.3-8,0.3c-12.3,0-24-2.3-34.9-6.4"/>
	<path class="st0" d="M321.3,504.1"/>
	<path class="st1" d="M403.4,367.2c5.2,12,8.1,25.1,8.1,39c0,41.9-26.3,77.7-63.3,91.8"/>
	<path class="st2" d="M284.2,381.9L341,506.7c2.9,6.4,2.5,13-1,14.4l-1.8,0.8c-3.5,1.5-8.5-2.8-11-9.3L276.8,385"/>
	<path class="st3" d="M276.8,385l-14.7-2.6c-5.8-0.6-10.9-4.3-13.2-9.7l-19-45"/>
	<line class="st3" x1="239.5" y1="323.6" x2="257.7" y2="366.5"/>
	<line class="st3" x1="251" y1="318.7" x2="269.2" y2="361.7"/>
	<path class="st3" d="M284.1,381.9l8.4-12.4c3.6-4.6,4.5-10.8,2.2-16.2l-19-45"/>
	<line class="st3" x1="262.8" y1="314.7" x2="281" y2="357.7"/>
	<path class="st4" d="M387.2,383.2c-10.4,13.7-15.6,15.9-18.3,16.8c-8.5,2.7-16.6-0.1-20.6-1.9l-4.5-3.4l-70.2,97.6
		c-3.8,5.3-9.3,8-12.1,5.9l-1.4-1.1c-2.8-2.1-1.6-8.1,2.4-13.2l75.1-93.8l-4.4-3.4c-2.8-3.4-7.6-10.4-7.3-19.3
		c0.1-2.9,0.8-8.5,11.3-22.1c4.7-6.1,11.6-14.3,21.5-23c11.8-8.7,25.6-6.8,35,0.7c9.7,7,15.2,19.9,10,33.5
		C397.9,368.2,391.8,377.1,387.2,383.2z"/>
</g>
</svg>
