<svg id="Layer_1" data-name="Layer 1" xmlns="http://www.w3.org/2000/svg" viewBox="0 0 260.5 241.5"><defs><style>.cls-1,.cls-2{fill:#fff;stroke:#000;stroke-miterlimit:10;}.cls-1{stroke-width:2px;}.cls-2{stroke-width:0.75px;}</style></defs><path class="cls-1" d="M623.93,877.14A105.23,105.23,0,1,1,577,775.82l7.65-12.32a119.75,119.75,0,1,0,53.85,114.11Z" transform="translate(-398.75 -743.25)"/><path class="cls-2" d="M595.47,876.22l-16.78-.54c-1.79,1.37-3.8,1-5.56-.18L558.55,875a8.27,8.27,0,0,1,.72.53.94.94,0,0,0,.1.1c3.31,3,1.53,8.15-1.35,10.75-2.1,1.9-4.56,1.26-6.58-.43a5.9,5.9,0,0,1-2-4.75,8,8,0,0,1,3.79-6.37l-17.34-.56a5.68,5.68,0,0,1,2.34,1.26.94.94,0,0,0,.1.1c3.31,3,1.53,8.15-1.35,10.75-2.1,1.9-4.56,1.26-6.58-.43a5.9,5.9,0,0,1-2-4.75c.15-3.3,2.56-6.46,5.46-7l-17.75-.57,8.94-14.38a6.18,6.18,0,0,1-.65-3c.17-3.84,3.41-7.48,6.91-7l15.13-24.35a8,8,0,0,1,3.71-6L577,775.82a105.26,105.26,0,1,0,46.95,101.32l-25.39-.82A4.18,4.18,0,0,1,595.47,876.22Zm-68.18-33.45a1.43,1.43,0,0,0-.83.41,2,2,0,0,0-.18,1.25c0,1-.71,2-1.65,1.9.94.12,1.66-1,1.65-1.9a2,2,0,0,1,.18-1.25,1.43,1.43,0,0,1,.83-.41,29.86,29.86,0,0,0,3.12-.84A29.86,29.86,0,0,1,527.29,842.77Zm13-34a1.43,1.43,0,0,0-.83.41,2,2,0,0,0-.18,1.25c0,1-.71,2-1.65,1.9.94.12,1.66-1,1.65-1.9a2,2,0,0,1,.18-1.25,1.43,1.43,0,0,1,.83-.41,29.86,29.86,0,0,0,3.12-.84A29.86,29.86,0,0,1,540.29,808.77ZM551,805.41c-2.1,1.9-4.56,1.26-6.58-.43a5.9,5.9,0,0,1-2-4.75c.22-4.9,5.41-9.5,9.79-5.67a.94.94,0,0,0,.1.1C555.68,797.67,553.9,802.81,551,805.41Zm.25-36.85a.94.94,0,0,0,.1.1c3.31,3,1.53,8.15-1.35,10.75-2.1,1.9-4.56,1.26-6.58-.43a5.9,5.9,0,0,1-2-4.75C541.7,769.33,546.89,764.73,551.27,768.56Zm-13,15.87a2,2,0,0,1,.18-1.25,1.43,1.43,0,0,1,.83-.41,29.86,29.86,0,0,0,3.12-.84,29.86,29.86,0,0,1-3.12.84,1.43,1.43,0,0,0-.83.41,2,2,0,0,0-.18,1.25c0,1-.71,2-1.65,1.9C537.57,786.45,538.29,785.38,538.28,784.43Zm-2.91,35.23c3.31,3,1.53,8.15-1.35,10.75-2.1,1.9-4.56,1.26-6.58-.43a5.9,5.9,0,0,1-2-4.75c.22-4.9,5.41-9.5,9.79-5.67A.94.94,0,0,0,535.37,819.66ZM530,805.41c-2.1,1.9-4.56,1.26-6.58-.43a5.9,5.9,0,0,1-2-4.75c.22-4.9,5.41-9.5,9.79-5.67a.94.94,0,0,0,.1.1C534.68,797.67,532.9,802.81,530,805.41Zm.25-36.85a.94.94,0,0,0,.1.1c3.31,3,1.53,8.15-1.35,10.75-2.1,1.9-4.56,1.26-6.58-.43a5.9,5.9,0,0,1-2-4.75C520.7,769.33,525.89,764.73,530.27,768.56Zm12,126.87a2,2,0,0,1,.18-1.25,1.43,1.43,0,0,1,.83-.41,29.86,29.86,0,0,0,3.12-.84,29.86,29.86,0,0,1-3.12.84,1.43,1.43,0,0,0-.83.41,2,2,0,0,0-.18,1.25c0,1-.71,2-1.65,1.9C541.57,897.45,542.29,896.38,542.28,895.43Zm-5,8.13a.94.94,0,0,0,.1.1c3.31,3,1.53,8.15-1.35,10.75-2.1,1.9-4.56,1.26-6.58-.43a5.9,5.9,0,0,1-2-4.75C527.7,904.33,532.89,899.73,537.27,903.56Zm-13.81-8.38a1.43,1.43,0,0,1,.83-.41,29.86,29.86,0,0,0,3.12-.84,29.86,29.86,0,0,1-3.12.84,1.43,1.43,0,0,0-.83.41,2,2,0,0,0-.18,1.25c0,1-.71,2-1.65,1.9.94.12,1.66-1,1.65-1.9A2,2,0,0,1,523.46,895.18Zm-2.19-17.62a.94.94,0,0,0,.1.1c3.31,3,1.53,8.15-1.35,10.75-2.1,1.9-4.56,1.26-6.58-.43a5.9,5.9,0,0,1-2-4.75C511.7,878.33,516.89,873.73,521.27,877.56Zm-11-12.13c0,1-.71,2-1.65,1.9.94.12,1.66-1,1.65-1.9a2,2,0,0,1,.18-1.25,1.43,1.43,0,0,1,.83-.41,29.86,29.86,0,0,0,3.12-.84,29.86,29.86,0,0,1-3.12.84,1.43,1.43,0,0,0-.83.41A2,2,0,0,0,510.28,865.43Zm5-47.22c0,.26-.71.55-1.65.52.94,0,1.66-.26,1.65-.52s-.08-.24.18-.33a3.71,3.71,0,0,1,.83-.11c1.05-.07,2.11-.13,3.12-.23-1,.1-2.07.16-3.12.23a3.71,3.71,0,0,0-.83.11C515.2,818,515.28,818.1,515.28,818.21Zm-1-25.78a2,2,0,0,1,.18-1.25,1.43,1.43,0,0,1,.83-.41,29.86,29.86,0,0,0,3.12-.84,29.86,29.86,0,0,1-3.12.84,1.43,1.43,0,0,0-.83.41,2,2,0,0,0-.18,1.25c0,1-.71,2-1.65,1.9C513.57,794.45,514.29,793.38,514.28,792.43Zm3,40.13a.94.94,0,0,0,.1.1c3.31,3,1.53,8.15-1.35,10.75-2.1,1.9-4.56,1.26-6.58-.43a5.9,5.9,0,0,1-2-4.75C507.7,833.33,512.89,828.73,517.27,832.56Zm-11.9-33.9c3.31,3,1.53,8.15-1.35,10.75-2.1,1.9-4.56,1.26-6.58-.43a5.9,5.9,0,0,1-2-4.75c.22-4.9,5.41-9.5,9.79-5.67A.94.94,0,0,0,505.37,798.66ZM495.28,917.43c0,1-.71,2-1.65,1.9.94.12,1.66-1,1.65-1.9a2,2,0,0,1,.18-1.25,1.43,1.43,0,0,1,.83-.41,29.86,29.86,0,0,0,3.12-.84,29.86,29.86,0,0,1-3.12.84,1.43,1.43,0,0,0-.83.41A2,2,0,0,0,495.28,917.43Zm4-19c0,1-.71,2-1.65,1.9.94.12,1.66-1,1.65-1.9a2,2,0,0,1,.18-1.25,1.43,1.43,0,0,1,.83-.41,29.86,29.86,0,0,0,3.12-.84,29.86,29.86,0,0,1-3.12.84,1.43,1.43,0,0,0-.83.41A2,2,0,0,0,499.28,898.43Zm-30-27c0,1-.71,2-1.65,1.9.94.12,1.66-1,1.65-1.9a2,2,0,0,1,.18-1.25,1.43,1.43,0,0,1,.83-.41,29.86,29.86,0,0,0,3.12-.84,29.86,29.86,0,0,1-3.12.84,1.43,1.43,0,0,0-.83.41A2,2,0,0,0,469.28,871.43Zm.18-26.25a1.43,1.43,0,0,1,.83-.41,29.86,29.86,0,0,0,3.12-.84,29.86,29.86,0,0,1-3.12.84,1.43,1.43,0,0,0-.83.41,2,2,0,0,0-.18,1.25c0,1-.71,2-1.65,1.9.94.12,1.66-1,1.65-1.9A2,2,0,0,1,469.46,845.18Zm2,12.05c.22-4.9,5.41-9.5,9.79-5.67a.94.94,0,0,0,.1.1c3.31,3,1.53,8.15-1.35,10.75-2.1,1.9-4.56,1.26-6.58-.43A5.9,5.9,0,0,1,471.48,857.23Zm14,10.95a2,2,0,0,0-.18,1.25c0,1-.71,2-1.65,1.9.94.12,1.66-1,1.65-1.9a2,2,0,0,1,.18-1.25,1.43,1.43,0,0,1,.83-.41,29.86,29.86,0,0,0,3.12-.84,29.86,29.86,0,0,1-3.12.84A1.43,1.43,0,0,0,485.46,868.18ZM483,914.41c-2.1,1.9-4.56,1.26-6.58-.43a5.9,5.9,0,0,1-2-4.75c.22-4.9,5.41-9.5,9.79-5.67a.94.94,0,0,0,.1.1C487.68,906.67,485.9,911.81,483,914.41Zm6.44-101.53a3.71,3.71,0,0,1,.83-.11c1-.07,2.11-.13,3.12-.23-1,.1-2.07.16-3.12.23a3.71,3.71,0,0,0-.83.11c-.26.09-.18.22-.18.33s-.71.55-1.65.52c.94,0,1.66-.26,1.65-.52S489.2,813,489.46,812.88Zm-1,19.35c.22-4.9,5.41-9.5,9.79-5.67a.94.94,0,0,0,.1.1c3.31,3,1.53,8.15-1.35,10.75-2.1,1.9-4.56,1.26-6.58-.43A5.9,5.9,0,0,1,488.48,832.23Zm13.79,19.33a.94.94,0,0,0,.1.1c3.31,3,1.53,8.15-1.35,10.75-2.1,1.9-4.56,1.26-6.58-.43a5.9,5.9,0,0,1-2-4.75C492.7,852.33,497.89,847.73,502.27,851.56Zm-1-78a.94.94,0,0,0,.1.1c3.31,3,1.53,8.15-1.35,10.75-2.1,1.9-4.56,1.26-6.58-.43a5.9,5.9,0,0,1-2-4.75C491.7,774.33,496.89,769.73,501.27,773.56Zm-14,16.65c0-.11-.08-.24.18-.33a3.71,3.71,0,0,1,.83-.11c1-.07,2.11-.13,3.12-.23-1,.1-2.07.16-3.12.23a3.71,3.71,0,0,0-.83.11c-.26.09-.18.22-.18.33s-.71.55-1.65.52C486.57,790.76,487.29,790.47,487.28,790.21Zm-2.91,8.45c3.31,3,1.53,8.15-1.35,10.75-2.1,1.9-4.56,1.26-6.58-.43a5.9,5.9,0,0,1-2-4.75c.22-4.9,5.41-9.5,9.79-5.67A.94.94,0,0,0,484.37,798.66Zm-4.1-25.1a.94.94,0,0,0,.1.1c3.31,3,1.53,8.15-1.35,10.75-2.1,1.9-4.56,1.26-6.58-.43a5.9,5.9,0,0,1-2-4.75C470.7,774.33,475.89,769.73,480.27,773.56Zm-3,53a.94.94,0,0,0,.1.1c3.31,3,1.53,8.15-1.35,10.75-2.1,1.9-4.56,1.26-6.58-.43a5.9,5.9,0,0,1-2-4.75C467.7,827.33,472.89,822.73,477.27,826.56Zm-14-1.13c0,1-.71,2-1.65,1.9.94.12,1.66-1,1.65-1.9a2,2,0,0,1,.18-1.25,1.43,1.43,0,0,1,.83-.41,29.86,29.86,0,0,0,3.12-.84,29.86,29.86,0,0,1-3.12.84,1.43,1.43,0,0,0-.83.41A2,2,0,0,0,463.28,825.43Zm-3-36.22c0-.11-.08-.24.18-.33a3.71,3.71,0,0,1,.83-.11c1-.07,2.11-.13,3.12-.23-1,.1-2.07.16-3.12.23a3.71,3.71,0,0,0-.83.11c-.26.09-.18.22-.18.33s-.71.55-1.65.52C459.57,789.76,460.29,789.47,460.28,789.21Zm5,12.35a.94.94,0,0,0,.1.1c3.31,3,1.53,8.15-1.35,10.75-2.1,1.9-4.56,1.26-6.58-.43a5.9,5.9,0,0,1-2-4.75C455.7,802.33,460.89,797.73,465.27,801.56Zm-21,0a.94.94,0,0,0,.1.1c3.31,3,1.53,8.15-1.35,10.75-2.1,1.9-4.56,1.26-6.58-.43a5.9,5.9,0,0,1-2-4.75C434.7,802.33,439.89,797.73,444.27,801.56ZM435,862.41c-2.1,1.9-4.56,1.26-6.58-.43a5.9,5.9,0,0,1-2-4.75c.22-4.9,5.41-9.5,9.79-5.67a.94.94,0,0,0,.1.1C439.68,854.67,437.9,859.81,435,862.41Zm-12.54-30.18c.22-4.9,5.41-9.5,9.79-5.67a.94.94,0,0,0,.1.1c3.31,3,1.53,8.15-1.35,10.75-2.1,1.9-4.56,1.26-6.58-.43A5.9,5.9,0,0,1,422.48,832.23Zm2,46c.22-4.9,5.41-9.5,9.79-5.67a.94.94,0,0,0,.1.1c3.31,3,1.53,8.15-1.35,10.75-2.1,1.9-4.56,1.26-6.58-.43A5.9,5.9,0,0,1,424.48,878.23ZM437,908.41c-2.1,1.9-4.56,1.26-6.58-.43a5.9,5.9,0,0,1-2-4.75c.22-4.9,5.41-9.5,9.79-5.67a.94.94,0,0,0,.1.1C441.68,900.67,439.9,905.81,437,908.41Zm3.27-65.64a1.43,1.43,0,0,0-.83.41,2,2,0,0,0-.18,1.25c0,1-.71,2-1.65,1.9.94.12,1.66-1,1.65-1.9a2,2,0,0,1,.18-1.25,1.43,1.43,0,0,1,.83-.41,29.86,29.86,0,0,0,3.12-.84A29.86,29.86,0,0,1,440.29,842.77Zm3.19-10.54c.22-4.9,5.41-9.5,9.79-5.67a.94.94,0,0,0,.1.1c3.31,3,1.53,8.15-1.35,10.75-2.1,1.9-4.56,1.26-6.58-.43A5.9,5.9,0,0,1,443.48,832.23Zm4,25c.22-4.9,5.41-9.5,9.79-5.67a.94.94,0,0,0,.1.1c3.31,3,1.53,8.15-1.35,10.75-2.1,1.9-4.56,1.26-6.58-.43A5.9,5.9,0,0,1,447.48,857.23Zm2,27c.22-4.9,5.41-9.5,9.79-5.67a.94.94,0,0,0,.1.1c3.31,3,1.53,8.15-1.35,10.75-2.1,1.9-4.56,1.26-6.58-.43A5.9,5.9,0,0,1,449.48,884.23Zm11.81,41.54a1.43,1.43,0,0,0-.83.41,2,2,0,0,0-.18,1.25c0,1-.71,2-1.65,1.9.94.12,1.66-1,1.65-1.9a2,2,0,0,1,.18-1.25,1.43,1.43,0,0,1,.83-.41,29.86,29.86,0,0,0,3.12-.84A29.86,29.86,0,0,1,461.29,925.77Zm.73-11.36c-2.1,1.9-4.56,1.26-6.58-.43a5.9,5.9,0,0,1-2-4.75c.22-4.9,5.41-9.5,9.79-5.67a.94.94,0,0,0,.1.1C466.68,906.67,464.9,911.81,462,914.41Zm5.27-19.64a1.43,1.43,0,0,0-.83.41,2,2,0,0,0-.18,1.25c0,1-.71,2-1.65,1.9.94.12,1.66-1,1.65-1.9a2,2,0,0,1,.18-1.25,1.43,1.43,0,0,1,.83-.41,29.86,29.86,0,0,0,3.12-.84A29.86,29.86,0,0,1,467.29,894.77Zm3.19-10.54c.22-4.9,5.41-9.5,9.79-5.67a.94.94,0,0,0,.1.1c3.31,3,1.53,8.15-1.35,10.75-2.1,1.9-4.56,1.26-6.58-.43A5.9,5.9,0,0,1,470.48,884.23ZM481,936.41c-2.1,1.9-4.56,1.26-6.58-.43a5.9,5.9,0,0,1-2-4.75c.22-4.9,5.41-9.5,9.79-5.67a.94.94,0,0,0,.1.1C485.68,928.67,483.9,933.81,481,936.41Zm7.27,5.36a1.43,1.43,0,0,0-.83.41,2,2,0,0,0-.18,1.25c0,1-.71,2-1.65,1.9.94.12,1.66-1,1.65-1.9a2,2,0,0,1,.18-1.25,1.43,1.43,0,0,1,.83-.41,29.86,29.86,0,0,0,3.12-.84A29.86,29.86,0,0,1,488.29,941.77Zm2.19-58.54c.22-4.9,5.41-9.5,9.79-5.67a.94.94,0,0,0,.1.1c3.31,3,1.53,8.15-1.35,10.75-2.1,1.9-4.56,1.26-6.58-.43A5.9,5.9,0,0,1,490.48,883.23ZM502,936.41c-2.1,1.9-4.56,1.26-6.58-.43a5.9,5.9,0,0,1-2-4.75c.22-4.9,5.41-9.5,9.79-5.67a.94.94,0,0,0,.1.1C506.68,928.67,504.9,933.81,502,936.41Zm4.46-27.18c.22-4.9,5.41-9.5,9.79-5.67a.94.94,0,0,0,.1.1c3.31,3,1.53,8.15-1.35,10.75-2.1,1.9-4.56,1.26-6.58-.43A5.9,5.9,0,0,1,506.48,909.23Zm6,29.75a5.9,5.9,0,0,1-2-4.75c.22-4.9,5.41-9.5,9.79-5.67a.94.94,0,0,0,.1.1c3.31,3,1.53,8.15-1.35,10.75C516.92,941.31,514.46,940.67,512.44,939ZM527,964.41c-2.1,1.9-4.56,1.26-6.58-.43a5.9,5.9,0,0,1-2-4.75c.22-4.9,5.41-9.5,9.79-5.67a.94.94,0,0,0,.1.1C531.68,956.67,529.9,961.81,527,964.41Zm13-25c-2.1,1.9-4.56,1.26-6.58-.43a5.9,5.9,0,0,1-2-4.75c.22-4.9,5.41-9.5,9.79-5.67a.94.94,0,0,0,.1.1C544.68,931.67,542.9,936.81,540,939.41Zm2.61-17.08c.94.12,1.66-1,1.65-1.9a2,2,0,0,1,.18-1.25,1.43,1.43,0,0,1,.83-.41,29.86,29.86,0,0,0,3.12-.84,29.86,29.86,0,0,1-3.12.84,1.43,1.43,0,0,0-.83.41,2,2,0,0,0-.18,1.25C544.29,921.38,543.57,922.45,542.63,922.33Zm3.66,26.44a1.43,1.43,0,0,0-.83.41,2,2,0,0,0-.18,1.25c0,1-.71,2-1.65,1.9.94.12,1.66-1,1.65-1.9a2,2,0,0,1,.18-1.25,1.43,1.43,0,0,1,.83-.41,29.86,29.86,0,0,0,3.12-.84A29.86,29.86,0,0,1,546.29,948.77Zm7.19-42.54c.22-4.9,5.41-9.5,9.79-5.67a.94.94,0,0,0,.1.1c3.31,3,1.53,8.15-1.35,10.75-2.1,1.9-4.56,1.26-6.58-.43A5.9,5.9,0,0,1,553.48,906.23ZM566,936.41c-2.1,1.9-4.56,1.26-6.58-.43a5.9,5.9,0,0,1-2-4.75c.22-4.9,5.41-9.5,9.79-5.67a.94.94,0,0,0,.1.1C570.68,928.67,568.9,933.81,566,936.41Zm.27-46.66a4.33,4.33,0,0,0-.83.12c-.26.09-.18.23-.18.35s-.71.56-1.65.53c.94,0,1.66-.27,1.65-.53s-.08-.26.18-.35a4.33,4.33,0,0,1,.83-.12c1.05-.07,2.11-.13,3.12-.23C568.4,889.62,567.34,889.68,566.29,889.75Zm7,32a4.33,4.33,0,0,0-.83.12c-.26.09-.18.23-.18.35s-.71.56-1.65.53c.94,0,1.66-.27,1.65-.53s-.08-.26.18-.35a4.33,4.33,0,0,1,.83-.12c1.05-.07,2.11-.13,3.12-.23C575.4,921.62,574.34,921.68,573.29,921.75Zm1.19-15.52c.22-4.9,5.41-9.5,9.79-5.67a.94.94,0,0,0,.1.1c3.31,3,1.53,8.15-1.35,10.75-2.1,1.9-4.56,1.26-6.58-.43A5.9,5.9,0,0,1,574.48,906.23ZM587,936.41c-2.1,1.9-4.56,1.26-6.58-.43a5.9,5.9,0,0,1-2-4.75c.22-4.9,5.41-9.5,9.79-5.67a.94.94,0,0,0,.1.1C591.68,928.67,589.9,933.81,587,936.41Zm16.35-37.75c3.31,3,1.53,8.15-1.35,10.75-2.1,1.9-4.56,1.26-6.58-.43a5.9,5.9,0,0,1-2-4.75c.22-4.9,5.41-9.5,9.79-5.67A.94.94,0,0,0,603.37,898.66Z" transform="translate(-398.75 -743.25)"/><path class="cls-2" d="M469.44,837c2,1.69,4.48,2.33,6.58.43,2.88-2.6,4.66-7.74,1.35-10.75a.94.94,0,0,1-.1-.1c-4.38-3.83-9.57.77-9.79,5.67A5.9,5.9,0,0,0,469.44,837Z" transform="translate(-398.75 -743.25)"/><path class="cls-2" d="M480,862.41c2.88-2.6,4.66-7.74,1.35-10.75a.94.94,0,0,1-.1-.1c-4.38-3.83-9.57.77-9.79,5.67a5.9,5.9,0,0,0,2,4.75C475.46,863.67,477.92,864.31,480,862.41Z" transform="translate(-398.75 -743.25)"/><path class="cls-2" d="M490.44,837c2,1.69,4.48,2.33,6.58.43,2.88-2.6,4.66-7.74,1.35-10.75a.94.94,0,0,1-.1-.1c-4.38-3.83-9.57.77-9.79,5.67A5.9,5.9,0,0,0,490.44,837Z" transform="translate(-398.75 -743.25)"/><path class="cls-2" d="M494.44,862c2,1.69,4.48,2.33,6.58.43,2.88-2.6,4.66-7.74,1.35-10.75a.94.94,0,0,1-.1-.1c-4.38-3.83-9.57.77-9.79,5.67A5.9,5.9,0,0,0,494.44,862Z" transform="translate(-398.75 -743.25)"/><path class="cls-2" d="M499,888.41c2.88-2.6,4.66-7.74,1.35-10.75a.94.94,0,0,1-.1-.1c-4.38-3.83-9.57.77-9.79,5.67a5.9,5.9,0,0,0,2,4.75C494.46,889.67,496.92,890.31,499,888.41Z" transform="translate(-398.75 -743.25)"/><path class="cls-2" d="M511.48,883.23a5.9,5.9,0,0,0,2,4.75c2,1.69,4.48,2.33,6.58.43,2.88-2.6,4.66-7.74,1.35-10.75a.94.94,0,0,1-.1-.1C516.89,873.73,511.7,878.33,511.48,883.23Z" transform="translate(-398.75 -743.25)"/><path class="cls-2" d="M482.27,925.56c-4.38-3.83-9.57.77-9.79,5.67a5.9,5.9,0,0,0,2,4.75c2,1.69,4.48,2.33,6.58.43,2.88-2.6,4.66-7.74,1.35-10.75A.94.94,0,0,1,482.27,925.56Z" transform="translate(-398.75 -743.25)"/><path class="cls-2" d="M503.27,925.56c-4.38-3.83-9.57.77-9.79,5.67a5.9,5.9,0,0,0,2,4.75c2,1.69,4.48,2.33,6.58.43,2.88-2.6,4.66-7.74,1.35-10.75A.94.94,0,0,1,503.27,925.56Z" transform="translate(-398.75 -743.25)"/><path class="cls-2" d="M458,889.41c2.88-2.6,4.66-7.74,1.35-10.75a.94.94,0,0,1-.1-.1c-4.38-3.83-9.57.77-9.79,5.67a5.9,5.9,0,0,0,2,4.75C453.46,890.67,455.92,891.31,458,889.41Z" transform="translate(-398.75 -743.25)"/><path class="cls-2" d="M463.27,903.56c-4.38-3.83-9.57.77-9.79,5.67a5.9,5.9,0,0,0,2,4.75c2,1.69,4.48,2.33,6.58.43,2.88-2.6,4.66-7.74,1.35-10.75A.94.94,0,0,1,463.27,903.56Z" transform="translate(-398.75 -743.25)"/><path class="cls-2" d="M433,883.41c2.88-2.6,4.66-7.74,1.35-10.75a.94.94,0,0,1-.1-.1c-4.38-3.83-9.57.77-9.79,5.67a5.9,5.9,0,0,0,2,4.75C428.46,884.67,430.92,885.31,433,883.41Z" transform="translate(-398.75 -743.25)"/><path class="cls-2" d="M438.27,897.56c-4.38-3.83-9.57.77-9.79,5.67a5.9,5.9,0,0,0,2,4.75c2,1.69,4.48,2.33,6.58.43,2.88-2.6,4.66-7.74,1.35-10.75A.94.94,0,0,1,438.27,897.56Z" transform="translate(-398.75 -743.25)"/><path class="cls-2" d="M479,889.41c2.88-2.6,4.66-7.74,1.35-10.75a.94.94,0,0,1-.1-.1c-4.38-3.83-9.57.77-9.79,5.67a5.9,5.9,0,0,0,2,4.75C474.46,890.67,476.92,891.31,479,889.41Z" transform="translate(-398.75 -743.25)"/><path class="cls-2" d="M484.27,903.56c-4.38-3.83-9.57.77-9.79,5.67a5.9,5.9,0,0,0,2,4.75c2,1.69,4.48,2.33,6.58.43,2.88-2.6,4.66-7.74,1.35-10.75A.94.94,0,0,1,484.27,903.56Z" transform="translate(-398.75 -743.25)"/><path class="cls-2" d="M515,914.41c2.88-2.6,4.66-7.74,1.35-10.75a.94.94,0,0,1-.1-.1c-4.38-3.83-9.57.77-9.79,5.67a5.9,5.9,0,0,0,2,4.75C510.46,915.67,512.92,916.31,515,914.41Z" transform="translate(-398.75 -743.25)"/><path class="cls-2" d="M520.37,928.66a.94.94,0,0,1-.1-.1c-4.38-3.83-9.57.77-9.79,5.67a5.9,5.9,0,0,0,2,4.75c2,1.69,4.48,2.33,6.58.43C521.9,936.81,523.68,931.67,520.37,928.66Z" transform="translate(-398.75 -743.25)"/><path class="cls-2" d="M529.44,914c2,1.69,4.48,2.33,6.58.43,2.88-2.6,4.66-7.74,1.35-10.75a.94.94,0,0,1-.1-.1c-4.38-3.83-9.57.77-9.79,5.67A5.9,5.9,0,0,0,529.44,914Z" transform="translate(-398.75 -743.25)"/><path class="cls-2" d="M541.27,928.56c-4.38-3.83-9.57.77-9.79,5.67a5.9,5.9,0,0,0,2,4.75c2,1.69,4.48,2.33,6.58.43,2.88-2.6,4.66-7.74,1.35-10.75A.94.94,0,0,1,541.27,928.56Z" transform="translate(-398.75 -743.25)"/><path class="cls-2" d="M528.27,953.56c-4.38-3.83-9.57.77-9.79,5.67a5.9,5.9,0,0,0,2,4.75c2,1.69,4.48,2.33,6.58.43,2.88-2.6,4.66-7.74,1.35-10.75A.94.94,0,0,1,528.27,953.56Z" transform="translate(-398.75 -743.25)"/><path class="cls-2" d="M531.27,794.56c-4.38-3.83-9.57.77-9.79,5.67a5.9,5.9,0,0,0,2,4.75c2,1.69,4.48,2.33,6.58.43,2.88-2.6,4.66-7.74,1.35-10.75A.94.94,0,0,1,531.27,794.56Z" transform="translate(-398.75 -743.25)"/><path class="cls-2" d="M525.48,825.23a5.9,5.9,0,0,0,2,4.75c2,1.69,4.48,2.33,6.58.43,2.88-2.6,4.66-7.74,1.35-10.75a.94.94,0,0,1-.1-.1C530.89,815.73,525.7,820.33,525.48,825.23Z" transform="translate(-398.75 -743.25)"/><path class="cls-2" d="M509.44,843c2,1.69,4.48,2.33,6.58.43,2.88-2.6,4.66-7.74,1.35-10.75a.94.94,0,0,1-.1-.1c-4.38-3.83-9.57.77-9.79,5.67A5.9,5.9,0,0,0,509.44,843Z" transform="translate(-398.75 -743.25)"/><path class="cls-2" d="M552.27,794.56c-4.38-3.83-9.57.77-9.79,5.67a5.9,5.9,0,0,0,2,4.75c2,1.69,4.48,2.33,6.58.43,2.88-2.6,4.66-7.74,1.35-10.75A.94.94,0,0,1,552.27,794.56Z" transform="translate(-398.75 -743.25)"/><path class="cls-2" d="M546.52,824.85l3.71-6A8,8,0,0,0,546.52,824.85Z" transform="translate(-398.75 -743.25)"/><path class="cls-2" d="M472.44,784c2,1.69,4.48,2.33,6.58.43,2.88-2.6,4.66-7.74,1.35-10.75a.94.94,0,0,1-.1-.1c-4.38-3.83-9.57.77-9.79,5.67A5.9,5.9,0,0,0,472.44,784Z" transform="translate(-398.75 -743.25)"/><path class="cls-2" d="M474.48,804.23a5.9,5.9,0,0,0,2,4.75c2,1.69,4.48,2.33,6.58.43,2.88-2.6,4.66-7.74,1.35-10.75a.94.94,0,0,1-.1-.1C479.89,794.73,474.7,799.33,474.48,804.23Z" transform="translate(-398.75 -743.25)"/><path class="cls-2" d="M493.44,784c2,1.69,4.48,2.33,6.58.43,2.88-2.6,4.66-7.74,1.35-10.75a.94.94,0,0,1-.1-.1c-4.38-3.83-9.57.77-9.79,5.67A5.9,5.9,0,0,0,493.44,784Z" transform="translate(-398.75 -743.25)"/><path class="cls-2" d="M495.48,804.23a5.9,5.9,0,0,0,2,4.75c2,1.69,4.48,2.33,6.58.43,2.88-2.6,4.66-7.74,1.35-10.75a.94.94,0,0,1-.1-.1C500.89,794.73,495.7,799.33,495.48,804.23Z" transform="translate(-398.75 -743.25)"/><path class="cls-2" d="M436.44,812c2,1.69,4.48,2.33,6.58.43,2.88-2.6,4.66-7.74,1.35-10.75a.94.94,0,0,1-.1-.1c-4.38-3.83-9.57.77-9.79,5.67A5.9,5.9,0,0,0,436.44,812Z" transform="translate(-398.75 -743.25)"/><path class="cls-2" d="M457.44,812c2,1.69,4.48,2.33,6.58.43,2.88-2.6,4.66-7.74,1.35-10.75a.94.94,0,0,1-.1-.1c-4.38-3.83-9.57.77-9.79,5.67A5.9,5.9,0,0,0,457.44,812Z" transform="translate(-398.75 -743.25)"/><path class="cls-2" d="M431,837.41c2.88-2.6,4.66-7.74,1.35-10.75a.94.94,0,0,1-.1-.1c-4.38-3.83-9.57.77-9.79,5.67a5.9,5.9,0,0,0,2,4.75C426.46,838.67,428.92,839.31,431,837.41Z" transform="translate(-398.75 -743.25)"/><path class="cls-2" d="M426.48,857.23a5.9,5.9,0,0,0,2,4.75c2,1.69,4.48,2.33,6.58.43,2.88-2.6,4.66-7.74,1.35-10.75a.94.94,0,0,1-.1-.1C431.89,847.73,426.7,852.33,426.48,857.23Z" transform="translate(-398.75 -743.25)"/><path class="cls-2" d="M452,837.41c2.88-2.6,4.66-7.74,1.35-10.75a.94.94,0,0,1-.1-.1c-4.38-3.83-9.57.77-9.79,5.67a5.9,5.9,0,0,0,2,4.75C447.46,838.67,449.92,839.31,452,837.41Z" transform="translate(-398.75 -743.25)"/><path class="cls-2" d="M456,862.41c2.88-2.6,4.66-7.74,1.35-10.75a.94.94,0,0,1-.1-.1c-4.38-3.83-9.57.77-9.79,5.67a5.9,5.9,0,0,0,2,4.75C451.46,863.67,453.92,864.31,456,862.41Z" transform="translate(-398.75 -743.25)"/><path class="cls-2" d="M562,911.41c2.88-2.6,4.66-7.74,1.35-10.75a.94.94,0,0,1-.1-.1c-4.38-3.83-9.57.77-9.79,5.67a5.9,5.9,0,0,0,2,4.75C557.46,912.67,559.92,913.31,562,911.41Z" transform="translate(-398.75 -743.25)"/><path class="cls-2" d="M567.27,925.56c-4.38-3.83-9.57.77-9.79,5.67a5.9,5.9,0,0,0,2,4.75c2,1.69,4.48,2.33,6.58.43,2.88-2.6,4.66-7.74,1.35-10.75A.94.94,0,0,1,567.27,925.56Z" transform="translate(-398.75 -743.25)"/><path class="cls-2" d="M583,911.41c2.88-2.6,4.66-7.74,1.35-10.75a.94.94,0,0,1-.1-.1c-4.38-3.83-9.57.77-9.79,5.67a5.9,5.9,0,0,0,2,4.75C578.46,912.67,580.92,913.31,583,911.41Z" transform="translate(-398.75 -743.25)"/><path class="cls-2" d="M593.48,904.23a5.9,5.9,0,0,0,2,4.75c2,1.69,4.48,2.33,6.58.43,2.88-2.6,4.66-7.74,1.35-10.75a.94.94,0,0,1-.1-.1C598.89,894.73,593.7,899.33,593.48,904.23Z" transform="translate(-398.75 -743.25)"/><path class="cls-2" d="M588.27,925.56c-4.38-3.83-9.57.77-9.79,5.67a5.9,5.9,0,0,0,2,4.75c2,1.69,4.48,2.33,6.58.43,2.88-2.6,4.66-7.74,1.35-10.75A.94.94,0,0,1,588.27,925.56Z" transform="translate(-398.75 -743.25)"/><path class="cls-2" d="M578.69,875.68l-5.56-.18C574.89,876.7,576.9,877.05,578.69,875.68Z" transform="translate(-398.75 -743.25)"/><path class="cls-2" d="M598.54,876.32l-3.07-.1A4.18,4.18,0,0,0,598.54,876.32Z" transform="translate(-398.75 -743.25)"/><path class="cls-2" d="M524.48,856.23a6.18,6.18,0,0,0,.65,3l6.26-10.08C527.89,848.75,524.65,852.39,524.48,856.23Z" transform="translate(-398.75 -743.25)"/><path class="cls-2" d="M528.48,881.23a5.9,5.9,0,0,0,2,4.75c2,1.69,4.48,2.33,6.58.43,2.88-2.6,4.66-7.74,1.35-10.75a.94.94,0,0,1-.1-.1,5.68,5.68,0,0,0-2.34-1.26l-2-.07C531,874.77,528.63,877.93,528.48,881.23Z" transform="translate(-398.75 -743.25)"/><path class="cls-2" d="M549.48,881.23a5.9,5.9,0,0,0,2,4.75c2,1.69,4.48,2.33,6.58.43,2.88-2.6,4.66-7.74,1.35-10.75a.94.94,0,0,1-.1-.1,8.27,8.27,0,0,0-.72-.53l-5.28-.17A8,8,0,0,0,549.48,881.23Z" transform="translate(-398.75 -743.25)"/><path class="cls-2" d="M522.44,779c2,1.69,4.48,2.33,6.58.43,2.88-2.6,4.66-7.74,1.35-10.75a.94.94,0,0,1-.1-.1c-4.38-3.83-9.57.77-9.79,5.67A5.9,5.9,0,0,0,522.44,779Z" transform="translate(-398.75 -743.25)"/><path class="cls-2" d="M543.44,779c2,1.69,4.48,2.33,6.58.43,2.88-2.6,4.66-7.74,1.35-10.75a.94.94,0,0,1-.1-.1c-4.38-3.83-9.57.77-9.79,5.67A5.9,5.9,0,0,0,543.44,779Z" transform="translate(-398.75 -743.25)"/><path class="cls-1" d="M643.75,854a105.47,105.47,0,0,1-.82,13.14l14.55.47a122.37,122.37,0,0,0,.77-13.61,119.65,119.65,0,0,0-54.62-100.5L596,765.82A105.16,105.16,0,0,1,643.75,854Z" transform="translate(-398.75 -743.25)"/><path class="cls-2" d="M596,765.82l-26.75,43.06a4.94,4.94,0,0,1,6,.68.94.94,0,0,0,.1.1c3.31,3,1.53,8.15-1.35,10.75-2.1,1.9-4.56,1.26-6.58-.43a5.9,5.9,0,0,1-2-4.75c0-.13,0-.26,0-.38L550.39,839.2a5.44,5.44,0,0,1,2.88,1.36.94.94,0,0,0,.1.1c3.31,3,1.53,8.15-1.35,10.75-2.1,1.9-4.56,1.26-6.58-.43a5.07,5.07,0,0,1-1.31-1.7l-8.94,14.38,17.75.57a4.63,4.63,0,0,1,2,.07l17.34.56a4.83,4.83,0,0,1,5.28.17l14.58.47a6.92,6.92,0,0,1-.69-.52,5.9,5.9,0,0,1-2-4.75c.22-4.9,5.41-9.5,9.79-5.67a.94.94,0,0,0,.1.1c3.31,3,1.53,8.15-1.35,10.75l-.33.27,16.78.54a7.11,7.11,0,0,1-2-1.24,5.9,5.9,0,0,1-2-4.75c.22-4.9,5.41-9.5,9.79-5.67a.94.94,0,0,0,.1.1c3.31,3,1.53,8.15-1.35,10.75a4.6,4.6,0,0,1-1.48.91l25.39.82A105.32,105.32,0,0,0,596,765.82Zm-1.61,47.84c3.31,3,1.53,8.15-1.35,10.75-2.1,1.9-4.56,1.26-6.58-.43a5.9,5.9,0,0,1-2-4.75c.22-4.9,5.41-9.5,9.79-5.67A.94.94,0,0,0,594.37,813.66Zm-4.1-25.1a.94.94,0,0,0,.1.1c3.31,3,1.53,8.15-1.35,10.75-2.1,1.9-4.56,1.26-6.58-.43a5.9,5.9,0,0,1-2-4.75C580.7,789.33,585.89,784.73,590.27,788.56ZM573,851.41c-2.1,1.9-4.56,1.26-6.58-.43a5.9,5.9,0,0,1-2-4.75c.22-4.9,5.41-9.5,9.79-5.67a.94.94,0,0,0,.1.1C577.68,843.67,575.9,848.81,573,851.41Zm3.44-24.23a2,2,0,0,0-.18,1.25c0,1-.71,2-1.65,1.9.94.12,1.66-1,1.65-1.9a2,2,0,0,1,.18-1.25,1.43,1.43,0,0,1,.83-.41,29.86,29.86,0,0,0,3.12-.84,29.86,29.86,0,0,1-3.12.84A1.43,1.43,0,0,0,576.46,827.18Zm5.83,18.59a1.43,1.43,0,0,0-.83.41,2,2,0,0,0-.18,1.25c0,1-.71,2-1.65,1.9.94.12,1.66-1,1.65-1.9a2,2,0,0,1,.18-1.25,1.43,1.43,0,0,1,.83-.41,29.86,29.86,0,0,0,3.12-.84A29.86,29.86,0,0,1,582.29,845.77ZM594,840.41c-2.1,1.9-4.56,1.26-6.58-.43a5.9,5.9,0,0,1-2-4.75c.22-4.9,5.41-9.5,9.79-5.67a.94.94,0,0,0,.1.1C598.68,832.67,596.9,837.81,594,840.41Zm5.27-37.64a1.43,1.43,0,0,0-.83.41,2,2,0,0,0-.18,1.25c0,1-.71,2-1.65,1.9.94.12,1.66-1,1.65-1.9a2,2,0,0,1,.18-1.25,1.43,1.43,0,0,1,.83-.41,29.86,29.86,0,0,0,3.12-.84A29.86,29.86,0,0,1,599.29,802.77Zm2.19-8.54c.22-4.9,5.41-9.5,9.79-5.67a.94.94,0,0,0,.1.1c3.31,3,1.53,8.15-1.35,10.75-2.1,1.9-4.56,1.26-6.58-.43A5.9,5.9,0,0,1,601.48,794.23Zm13.79,19.33a.94.94,0,0,0,.1.1c3.31,3,1.53,8.15-1.35,10.75-2.1,1.9-4.56,1.26-6.58-.43a5.9,5.9,0,0,1-2-4.75C605.7,814.33,610.89,809.73,615.27,813.56ZM615,840.41c-2.1,1.9-4.56,1.26-6.58-.43a5.9,5.9,0,0,1-2-4.75c.22-4.9,5.41-9.5,9.79-5.67a.94.94,0,0,0,.1.1C619.68,832.67,617.9,837.81,615,840.41Z" transform="translate(-398.75 -743.25)"/><path class="cls-2" d="M597.27,839.56c-4.38-3.83-9.57.77-9.79,5.67a5.9,5.9,0,0,0,2,4.75c2,1.69,4.48,2.33,6.58.43,2.88-2.6,4.66-7.74,1.35-10.75A.94.94,0,0,1,597.27,839.56Z" transform="translate(-398.75 -743.25)"/><path class="cls-2" d="M533.94,874.23l2,.07A4.63,4.63,0,0,0,533.94,874.23Z" transform="translate(-398.75 -743.25)"/><path class="cls-2" d="M555.27,850.56c-4.38-3.83-9.57.77-9.79,5.67a5.9,5.9,0,0,0,2,4.75c2,1.69,4.48,2.33,6.58.43,2.88-2.6,4.66-7.74,1.35-10.75A.94.94,0,0,1,555.27,850.56Z" transform="translate(-398.75 -743.25)"/><path class="cls-2" d="M553.27,874.86l5.28.17A4.83,4.83,0,0,0,553.27,874.86Z" transform="translate(-398.75 -743.25)"/><path class="cls-2" d="M565.48,829.23a5.9,5.9,0,0,0,2,4.75c2,1.69,4.48,2.33,6.58.43,2.88-2.6,4.66-7.74,1.35-10.75a.94.94,0,0,1-.1-.1C570.89,819.73,565.7,824.33,565.48,829.23Z" transform="translate(-398.75 -743.25)"/><path class="cls-2" d="M591,809.41c2.88-2.6,4.66-7.74,1.35-10.75a.94.94,0,0,1-.1-.1c-4.38-3.83-9.57.77-9.79,5.67a5.9,5.9,0,0,0,2,4.75C586.46,810.67,588.92,811.31,591,809.41Z" transform="translate(-398.75 -743.25)"/></svg>