<svg id="Layer_1" data-name="Layer 1" xmlns="http://www.w3.org/2000/svg" viewBox="0 0 242.5 242.5"><defs><style>.cls-1,.cls-2,.cls-5{fill:#fff;}.cls-1,.cls-2,.cls-3,.cls-4,.cls-5{stroke:#000;stroke-miterlimit:10;}.cls-1{stroke-width:3px;}.cls-2,.cls-4{stroke-linecap:round;}.cls-2,.cls-3,.cls-4,.cls-5{stroke-width:2px;}.cls-3,.cls-4{fill:none;}</style></defs><circle class="cls-1" cx="121.25" cy="121.25" r="119.75"/><path class="cls-2" d="M285.78,312a98.45,98.45,0,0,1,75,8.33" transform="translate(-192 -285)"/><path class="cls-1" d="M266.57,319.86" transform="translate(-192 -285)"/><path class="cls-2" d="M255.68,485.78A98.2,98.2,0,0,1,231.21,352.3" transform="translate(-192 -285)"/><path class="cls-2" d="M321.27,504.1q-4,.33-8,.33a98,98,0,0,1-34.89-6.38" transform="translate(-192 -285)"/><path class="cls-1" d="M321.27,504.1" transform="translate(-192 -285)"/><path class="cls-2" d="M403.37,367.24a98.27,98.27,0,0,1-55.23,130.81" transform="translate(-192 -285)"/><path class="cls-3" d="M284.17,381.86,341,506.69c2.9,6.37,2.53,12.95-1,14.43l-1.8.76c-3.49,1.47-8.48-2.84-11.05-9.35L276.84,385" transform="translate(-192 -285)"/><path class="cls-4" d="M276.79,385l-14.69-2.62a16.06,16.06,0,0,1-13.18-9.71l-19-45" transform="translate(-192 -285)"/><line class="cls-4" x1="47.48" y1="38.56" x2="65.67" y2="81.55"/><line class="cls-4" x1="58.98" y1="33.69" x2="77.17" y2="76.69"/><path class="cls-4" d="M284.11,381.85l8.35-12.37a16,16,0,0,0,2.21-16.22l-19.05-45" transform="translate(-192 -285)"/><line class="cls-4" x1="70.83" y1="29.67" x2="89.01" y2="72.66"/><path class="cls-5" d="M387.21,383.2c-10.38,13.7-15.57,15.9-18.32,16.77-8.51,2.69-16.56-.11-20.56-1.88l-4.49-3.41-70.2,97.55c-3.8,5.27-9.27,8-12.07,5.88l-1.45-1.1c-2.79-2.13-1.62-8.15,2.44-13.22L337.67,390l-4.43-3.37c-2.77-3.39-7.61-10.4-7.28-19.31.1-2.89.83-8.48,11.28-22.14a161.18,161.18,0,0,1,21.47-23c11.75-8.7,25.59-6.81,35,.68,9.72,7,15.23,19.86,10,33.51A160.92,160.92,0,0,1,387.21,383.2Z" transform="translate(-192 -285)"/></svg>